<svg xmlns="http://www.w3.org/2000/svg" viewBox="0 0 1508.48 434.13"><title>CosmoBA-Logo</title><g id="Layer_2" data-name="Layer 2"><g id="Layer_1-2" data-name="Layer 1"><path d="M16.28,342.15H39.7c25.5,0,28.18,18.67,28.18,25,0,10-5,14.4-8.05,17.08,3.78,2.2,13.42,7.93,13.42,22,0,9.27-5.12,26.23-30,26.23h-27Zm13.18,37.57H40.19c12.32,0,14.52-7.44,14.52-12.69,0-12.81-12.32-12.81-15.25-12.81h-10Zm0,40.62H43.73c13.3,0,16.35-9.52,16.35-14.15a15.19,15.19,0,0,0-3.17-8.91c-4-5.37-10.12-5.49-14.76-5.49H29.46Z"/><path d="M129.74,432.42V342.15h48.68v12.08h-35.5v26.59h35.5V392.9h-35.5v27.45h35.5v12.08Z"/><path d="M287.36,432.42l-10-26.59H244.9l-10,26.59H221l34.28-90.28h11.83l34.28,90.28Zm-14.52-38.67-11.47-34.52h-.24l-11.59,34.52Z"/><path d="M404,403.27c0,10.25-3.42,17.69-9.15,23.18a32.82,32.82,0,0,1-42.21,0c-5.73-5.49-9.15-12.93-9.15-23.18V342.15h13.18V402.9c0,16.71,12.2,19.15,17.08,19.15s17.08-2.44,17.08-19.15V342.15H404Z"/><path d="M470.26,432.42v-78.2H452.94V342.15h47.82v12.08H483.44v78.2Z"/><path d="M563.1,432.42V399.85L535,342.15H549.8l19.88,42.33,19.76-42.33h14.64l-27.81,57.7v32.57Z"/><path d="M770.33,432.42l-10-26.59H727.88l-10,26.59H704l34.28-90.28h11.83l34.28,90.28Zm-14.52-38.67-11.47-34.52h-.24l-11.59,34.52Z"/><path d="M891.87,365.21c-2.68-3-10.74-12.69-25.37-12.69-18.79,0-33.55,15.49-33.55,34.52,0,19.4,15.62,35,33.3,35,9.52,0,18.42-4.64,24.64-12h16.23a46.48,46.48,0,0,1-41,24c-25.62,0-46.36-21.59-46.36-47.21a46.31,46.31,0,0,1,46.48-46.48,48,48,0,0,1,27.57,8.78,45.59,45.59,0,0,1,13.91,16Z"/><path d="M1007.79,432.42l-10-26.59H965.34l-10,26.59H941.43l34.28-90.28h11.83l34.28,90.28Zm-14.52-38.67-11.47-34.52h-.24L970,393.75Z"/><path d="M1062.94,342.15h29.28c18.79,0,30,7.2,36.84,16.59a51.16,51.16,0,0,1,9.27,28.79c0,12.2-4.64,25.25-11.35,31.84-10.37,10.25-22.57,13.05-35.26,13.05h-28.79Zm13.17,78.2h15.74c15.86,0,33.3-7.93,33.3-32.82,0-13.66-8.42-33.3-33.06-33.3h-16Z"/><path d="M1184,432.42V342.15h48.68v12.08h-35.5v26.59h35.5V392.9h-35.5v27.45h35.5v12.08Z"/><path d="M1367.81,432.42V356.18h-.37l-30.38,76.25h-7.93l-30.5-76.25h-.24v76.25h-13.18V342.15H1306L1333,411.32l27.2-69.17H1381v90.28Z"/><path d="M1448.94,432.42V399.85l-28.06-57.7h14.76l19.88,42.33,19.76-42.33h14.64l-27.81,57.7v32.57Z"/><path d="M243.54,177.05c-15.18,44.55-60.39,78.87-115.83,78.87C54.12,255.92,0,198.17,0,128.87,0,61.88,51.81,2.48,127.38,2.48,193.05,2.81,232,49,243.87,82.67H202.62C194.7,66.83,170,37.13,127.05,36.8c-51.81,0-88.11,42.57-88.11,92.07,0,50.82,37,92.73,88.44,92.73,47.19,0,70-35.64,75.24-44.55Z"/><path d="M320.51,130.52c0-76.89,59.07-128,127.71-128,72.93,0,128,56.43,128,126.72S521.15,255.92,447.89,255.92c-73.59,0-127.38-57.75-127.38-125.07Zm38.61-1.32c0,50.82,37.62,92.4,89.76,92.4,53.13,0,88.44-44.55,88.44-92.07,0-47.85-35.31-92.73-88.77-92.73-53.13,0-89.43,42.9-89.43,92.07Z"/><path d="M677.24,196.7s26.25,26.6,63,26.6c23.1,0,42.7-13,42.7-36.4,0-53.55-119.7-42-119.7-118,0-38.5,33.25-69,79.8-69,45.85,0,70,24.85,70,24.85l-15.75,28.7S774.54,32.2,743,32.2c-26.25,0-44.8,16.45-44.8,36.05,0,51.1,119.7,37.45,119.7,117.6,0,38.15-29.4,69.65-78.4,69.65-52.5,0-81.9-32.55-81.9-32.55Z"/><path d="M917.52,251.3V7.1H971l75.9,189.09L1121.79,7.1h53.13V251.3h-36l1-205.92L1059.09,251.3h-25.41L952.83,45.38l1,205.92Z"/><path d="M1252.72,130.52c0-76.89,59.07-128,127.71-128,72.93,0,128,56.43,128,126.72s-55.11,126.72-128.37,126.72c-73.59,0-127.38-57.75-127.38-125.07Zm38.61-1.32c0,50.82,37.62,92.4,89.76,92.4,53.13,0,88.44-44.55,88.44-92.07,0-47.85-35.31-92.73-88.77-92.73-53.13,0-89.43,42.9-89.43,92.07Z"/></g></g></svg>